<?xml version="1.0" encoding="UTF-8"?>
<!DOCTYPE svg PUBLIC "-//W3C//DTD SVG 1.1//EN" "http://www.w3.org/Graphics/SVG/1.1/DTD/svg11.dtd">
<svg version="1.1" xmlns="http://www.w3.org/2000/svg" xmlns:xlink="http://www.w3.org/1999/xlink" x="0" y="0" width="1200" height="1200" viewBox="0, 0, 1200, 1200">
  <g id="main">
    <path d="M957.13,517.945 L599.602,1068.103 L533.196,964.837 L957.13,517.945 z" fill="#FFFFFF"/>
    <path d="M256.944,304.302 L438.629,819.509 L105.014,304.302 L256.944,304.302 z" fill="#FFFFFF"/>
    <path d="M561.327,341.897 L655.023,361.088 L752.057,478.94 L447.941,478.94 L561.327,341.897 z" fill="#FFFFFF"/>
    <path d="M752.057,131.897 L610.107,304.302 L610.107,304.302 L590.584,304.302 L590.584,304.302 L447.941,131.897 L752.057,131.897 z" fill="#FFFFFF"/>
    <path d="M1094.986,304.302 L1010.883,433.975 L655.023,361.088 L652.847,358.445 L609.187,305.419 L610.107,304.302 L1094.986,304.302 z" fill="#FFFFFF"/>
    <path d="M590.584,304.302 L591.508,305.419 L565.071,337.373 L561.327,341.898 L377.772,304.302 L590.584,304.302 z" fill="#FFFFFF"/>
  </g>
</svg>
