<?xml version="1.0" encoding="UTF-8"?>
<!DOCTYPE svg PUBLIC "-//W3C//DTD SVG 1.1//EN" "http://www.w3.org/Graphics/SVG/1.1/DTD/svg11.dtd">
<svg version="1.1" xmlns="http://www.w3.org/2000/svg" xmlns:xlink="http://www.w3.org/1999/xlink" x="0" y="0" width="1200" height="1200" viewBox="0, 0, 1200, 1200">
  <g id="main">
    <path d="M1025.768,502.175 L599.526,1158.07 L520.357,1034.957 L1025.768,502.175 z" fill="#000000"/>
    <path d="M191.01,247.47 L407.614,861.697 L9.88,247.47 L191.01,247.47 z" fill="#000000"/>
    <path d="M553.894,292.291 L665.598,315.17 L781.282,455.673 L418.716,455.673 L553.894,292.291 z" fill="#000000"/>
    <path d="M781.282,41.93 L612.049,247.47 L612.049,247.47 L588.774,247.47 L588.774,247.47 L418.716,41.93 L781.282,41.93 z" fill="#000000"/>
    <path d="M1190.12,247.47 L1089.853,402.066 L665.598,315.17 L663.004,312.019 L610.953,248.802 L612.049,247.47 L1190.12,247.47 z" fill="#000000"/>
    <path d="M588.774,247.47 L589.876,248.802 L558.358,286.897 L553.894,292.292 L335.061,247.47 L588.774,247.47 z" fill="#000000"/>
  </g>
</svg>
