<?xml version="1.0" encoding="UTF-8"?>
<!DOCTYPE svg PUBLIC "-//W3C//DTD SVG 1.1//EN" "http://www.w3.org/Graphics/SVG/1.1/DTD/svg11.dtd">
<svg version="1.1" xmlns="http://www.w3.org/2000/svg" xmlns:xlink="http://www.w3.org/1999/xlink" x="0" y="0" width="1200" height="1200" viewBox="0, 0, 1200, 1200">
  <g id="main">
    <path d="M837.054,449.157 C838.351,461.597 838.24,474.087 838.1,486.568 C846.264,629.906 723.244,650.036 648.92,744.455 C643.096,752.101 637.799,760.318 636.201,769.936 C637.441,779.631 643.378,787.702 648.92,795.418 C690.531,857.534 769.039,882.673 810.66,944.275 C832.312,976.321 839.609,1015.174 838.1,1053.305 C838.674,1065.792 837.986,1078.27 837.054,1090.716 L714.954,1090.716 L714.954,1063.043 L677.083,1063.043 L637.98,846.406 L629.398,848.857 L607.772,729.058 L658.313,449.157 L837.054,449.157 z" fill="#000000"/>
    <path d="M541.766,449.157 L592.292,729.058 L570.64,848.968 L562.293,846.584 L523.221,1063.043 L485.046,1063.043 L485.046,1090.716 L362.949,1090.716 C361.649,1078.276 361.763,1065.786 361.9,1053.305 C353.736,909.967 476.763,889.837 551.08,795.418 C556.904,787.772 562.204,779.555 563.802,769.936 C562.562,760.242 556.625,752.171 551.08,744.455 C509.472,682.339 430.961,657.2 389.343,595.598 C367.691,563.552 360.394,524.698 361.9,486.568 C361.326,474.081 362.017,461.603 362.949,449.157 L541.766,449.157 z" fill="#000000"/>
    <path d="M600.03,771.937 L614.673,853.057 L606.358,855.432 L643.835,1063.044 L556.469,1063.044 L593.912,855.612 L585.362,853.171 L600.03,771.937 z" fill="#000000"/>
    <path d="M642.83,449.157 L600.033,686.175 L557.249,449.157 L642.83,449.157 z" fill="#000000"/>
    <path d="M601.485,171.124 L602.294,171.578 C602.81,172.744 603.486,173.854 603.841,175.078 C606.446,183.998 606.919,193.943 607.6,203.124 C608.983,221.736 609.325,240.398 609.411,259.057 L600.078,259.057 C608.957,259.162 617.887,259.14 626.719,260.215 C631.303,260.773 630.378,260.192 632.22,261.682 L634.283,278.655 C641.026,279.391 645.097,280.345 645.097,281.388 C638.053,286.197 625.67,297.318 640.116,303.74 L699.877,324.958 C711.749,324.958 721.37,325.941 721.37,327.152 L716.241,347.361 L740.644,353.258 C740.648,357.988 728.078,361.82 712.57,361.82 L705.979,387.781 C704.784,392.076 696.557,393.062 693.505,393.629 C684.676,395.275 676.842,395.677 667.833,396.441 L658.313,449.157 L642.83,449.157 L652.201,397.256 C634.816,398.026 617.409,398.134 600.008,398.185 L599.992,398.185 C582.626,398.058 565.232,398.153 547.882,397.259 L557.249,449.157 L541.766,449.157 L532.253,396.451 C523.231,395.684 515.34,395.278 506.499,393.629 C502.137,392.818 497.901,392.117 494.452,389.175 C494.081,388.862 494.164,388.247 494.021,387.781 L487.43,361.82 C471.925,361.82 459.356,357.988 459.356,353.258 L483.759,347.361 L478.63,327.152 C478.63,325.941 488.255,324.958 500.124,324.958 L559.884,303.74 C574.333,297.318 561.951,286.197 554.906,281.388 C554.906,280.345 558.977,279.391 565.717,278.655 L567.78,261.682 C567.999,261.508 568.164,261.226 568.433,261.153 C576.879,258.899 591.024,259.13 599.964,259.057 L593.56,259.057 C593.56,210.494 597.107,171.124 601.485,171.124 z M675.841,344.765 L524.159,344.765 L524.159,359.129 L675.841,359.129 L675.841,344.765 z" fill="#000000"/>
  </g>
</svg>
